<?xml version="1.0" encoding="UTF-8" standalone="no"?>

<svg
   width="176.38889mm"
   height="176.3889mm"
   viewBox="0 0 176.38889 176.3889"
   version="1.1"
   id="svg1"
   xml:space="preserve"
   xmlns="http://www.w3.org/2000/svg"
   xmlns:svg="http://www.w3.org/2000/svg"><defs
     id="defs1" /><g
     id="layer1"
     transform="translate(-17.129345,-63.576483)"><g
       style="fill:#ffffff;fill-opacity:1"
       id="g1"
       transform="matrix(8.8194444,0,0,8.8194444,-0.50954424,45.937593)"><path
         d="M 12,2 C 6.48,2 2,6.48 2,12 2,17.52 6.48,22 12,22 17.52,22 22,17.52 22,12 22,6.48 17.52,2 12,2 Z m 0,3 c 1.66,0 3,1.34 3,3 0,1.66 -1.34,3 -3,3 C 10.34,11 9,9.66 9,8 9,6.34 10.34,5 12,5 Z m 0,14.2 c -2.5,0 -4.71,-1.28 -6,-3.22 0.03,-1.99 4,-3.08 6,-3.08 1.99,0 5.97,1.09 6,3.08 -1.29,1.94 -3.5,3.22 -6,3.22 z"
         id="path1"
         style="fill:#ffffff;fill-opacity:1" /></g></g></svg>
