<?xml version="1.0" encoding="UTF-8" standalone="no"?>
<!-- Uploaded to: SVG Repo, www.svgrepo.com, Generator: SVG Repo Mixer Tools -->

<svg
   width="837.86285"
   height="837.86267"
   viewBox="0 0 25.135886 25.13588"
   fill="none"
   version="1.1"
   id="svg2"
   xmlns="http://www.w3.org/2000/svg"
   xmlns:svg="http://www.w3.org/2000/svg">
  <defs
     id="defs2" />
  <path
     d="m 15.992986,12.785346 c 0,1.77158 -1.43606,3.20764 -3.20764,3.20764 -1.771472,0 -3.2075966,-1.43606 -3.2075966,-3.20764 0,-1.771472 1.4361246,-3.2075965 3.2075966,-3.2075965 1.77158,0 3.20764,1.4361245 3.20764,3.2075965 z"
     stroke="#000000"
     stroke-width="2.13843"
     stroke-linecap="round"
     stroke-linejoin="round"
     id="path1" />
  <path
     d="M 7.0504915,3.9421661 6.9537739,5.1027524 C 6.9031924,5.7098435 6.8778891,6.0133953 6.7469904,6.2504718 6.6315929,6.4594717 6.4594716,6.6315929 6.2504718,6.7469904 6.0133952,6.8778892 5.7098307,6.9031924 5.1027524,6.9537739 l -1.160599,0.096718 C 2.6422971,7.1588224 1.9923753,7.2129753 1.6719927,7.5099162 1.393187,7.7683069 1.2451914,8.1382833 1.2688864,8.5176819 1.296102,8.9536522 1.7293875,9.441103 2.5959583,10.415941 l 0.7162071,0.805833 c 0.4234071,0.476306 0.6351044,0.714396 0.7154977,0.98326 0.070831,0.236696 0.070831,0.489098 0,0.725794 -0.080393,0.268737 -0.2920906,0.506954 -0.7154977,0.98326 l -0.7162071,0.805706 c -0.8665708,0.974902 -1.2998563,1.462352 -1.3270719,1.898386 -0.023695,0.379424 0.1243006,0.749349 0.4031063,1.007702 0.3203826,0.29698 0.9703044,0.351182 2.2701734,0.459464 l 1.1605863,0.09675 c 0.607091,0.05053 0.9106302,0.07586 1.1477194,0.206808 0.2089998,0.115372 0.3811211,0.287481 0.4965186,0.496443 0.1308987,0.237076 0.156202,0.540641 0.2067835,1.14777 l 0.096718,1.160561 c 0.1083312,1.299869 0.1624837,1.949804 0.4594247,2.270212 0.2583907,0.278742 0.628367,0.426788 1.0077657,0.403106 0.4359702,-0.02722 0.923421,-0.460602 1.8982597,-1.327098 l 0.805832,-0.716296 c 0.476306,-0.423369 0.714396,-0.63499 0.98326,-0.715409 0.236696,-0.07092 0.489098,-0.07092 0.725794,0 0.268737,0.08043 0.506954,0.29204 0.98326,0.715409 l 0.805706,0.716296 c 0.974902,0.866496 1.462352,1.29987 1.898386,1.327098 0.379424,0.02368 0.749349,-0.124364 1.007702,-0.403106 0.296979,-0.320408 0.351182,-0.970343 0.459464,-2.270212 l 0.09675,-1.160561 c 0.05053,-0.607129 0.07586,-0.910694 0.206808,-1.14777 0.115372,-0.208962 0.287481,-0.381071 0.496443,-0.496443 0.237076,-0.130949 0.540641,-0.156278 1.14777,-0.206808 l 1.160561,-0.09675 c 1.299869,-0.108279 1.949804,-0.162484 2.270211,-0.459464 0.278743,-0.258353 0.426789,-0.628278 0.403107,-1.007702 -0.02722,-0.436034 -0.460602,-0.923484 -1.327098,-1.898386 l -0.716296,-0.805706 c -0.423369,-0.476306 -0.63499,-0.714523 -0.715409,-0.98326 -0.07092,-0.236696 -0.07092,-0.489098 0,-0.725794 0.08043,-0.268864 0.29204,-0.506954 0.715409,-0.98326 l 0.716302,-0.805833 C 23.406399,9.441103 23.839773,8.9536522 23.867001,8.5176819 23.890683,8.1382833 23.742637,7.7683069 23.463895,7.5099162 23.143487,7.2129753 22.493553,7.1588224 21.193682,7.0504915 l -1.16056,-0.096718 C 19.425994,6.9031924 19.122428,6.8778892 18.885352,6.7469904 18.676391,6.6315929 18.504281,6.4594717 18.388909,6.2504718 18.25796,6.0133827 18.232631,5.7098435 18.182101,5.1027524 L 18.085348,3.9421535 C 17.977064,2.6422971 17.922861,1.9923754 17.625882,1.6719927 17.367529,1.393187 16.997604,1.2451914 16.61818,1.2688864 16.182146,1.296102 15.694696,1.7293875 14.719794,2.5959584 l -0.805706,0.7162071 c -0.476306,0.423407 -0.714523,0.6351044 -0.98326,0.7154977 -0.236696,0.070831 -0.489098,0.070831 -0.725794,0 C 11.93617,3.9472702 11.69808,3.7355725 11.221774,3.3121655 L 10.415941,2.5959584 C 9.4411029,1.7293875 8.9536521,1.296102 8.5176819,1.2688864 8.1382832,1.2451914 7.7683068,1.393187 7.5099162,1.6719927 7.2129752,1.9923754 7.1588223,2.6422971 7.0504915,3.9421661 Z"
     stroke="#000000"
     stroke-width="2.53287"
     stroke-linecap="round"
     stroke-linejoin="round"
     id="path2" />
</svg>
